HIERARCHY
ROOT reference
{
  OFFSET 0 0 0
  CHANNELS 6 Xposition Yposition Zposition Zrotation Xrotation Yrotation
  JOINT Hips
  {
    OFFSET 0 97.8064 0
    CHANNELS 6 Xposition Yposition Zposition Zrotation Xrotation Yrotation
    JOINT ToSpine
    {
      OFFSET -2.69724 7.43032 -0.144315
      CHANNELS 6 Xposition Yposition Zposition Zrotation Xrotation Yrotation
      JOINT Spine
      {
        OFFSET -0.0310711 10.7595 1.96963
        CHANNELS 6 Xposition Yposition Zposition Zrotation Xrotation Yrotation
        JOINT Spine1
        {
          OFFSET 13.1342 3.43533 0.764692
          CHANNELS 6 Xposition Yposition Zposition Zrotation Xrotation Yrotation
          JOINT Neck
          {
            OFFSET 29.8703 7.82586 -0.130764
            CHANNELS 6 Xposition Yposition Zposition Zrotation Xrotation Yrotation
            JOINT Head
            {
              OFFSET 9.52751 0.295786 -0.907742
              CHANNELS 6 Xposition Yposition Zposition Zrotation Xrotation Yrotation
              End Site
              {
                OFFSET 16.4037 0.713936 2.7358
              }
            }
          }
          JOINT LeftShoulder
          {
            OFFSET 27.5574 4.95586 2.47156
            CHANNELS 6 Xposition Yposition Zposition Zrotation Xrotation Yrotation
            JOINT LeftArm
            {
              OFFSET 1.20734 -0.998971 20.1238
              CHANNELS 6 Xposition Yposition Zposition Zrotation Xrotation Yrotation
              JOINT LeftForeArm
              {
                OFFSET 26.8049 -0.0536703 -0.155908
                CHANNELS 6 Xposition Yposition Zposition Zrotation Xrotation Yrotation
                JOINT LeftHand
                {
                  OFFSET 26.6817 0 0.320147
                  CHANNELS 6 Xposition Yposition Zposition Zrotation Xrotation Yrotation
                  End Site
                  {
                    OFFSET 18.6119 0 0.382219
                  }
                }
              }
            }
          }
          JOINT RightShoulder
          {
            OFFSET 27.5927 4.71444 -2.65209
            CHANNELS 6 Xposition Yposition Zposition Zrotation Xrotation Yrotation
            JOINT RightArm
            {
              OFFSET 2.83739 -1.17114 -18.7564
              CHANNELS 6 Xposition Yposition Zposition Zrotation Xrotation Yrotation
              JOINT RightForeArm
              {
                OFFSET 28.839 -0.0548439 1.22491
                CHANNELS 6 Xposition Yposition Zposition Zrotation Xrotation Yrotation
                JOINT RightHand
                {
                  OFFSET 26.5114 0 -0.101894
                  CHANNELS 6 Xposition Yposition Zposition Zrotation Xrotation Yrotation
                  End Site
                  {
                    OFFSET 18.2168 0 0
                  }
                }
              }
            }
          }
        }
      }
    }
    JOINT LeftUpLeg
    {
      OFFSET -4.76168 -1.9167 -10.2353
      CHANNELS 6 Xposition Yposition Zposition Zrotation Xrotation Yrotation
      JOINT LeftLeg
      {
        OFFSET 2.55951 -42.0585 -8.02213
        CHANNELS 6 Xposition Yposition Zposition Zrotation Xrotation Yrotation
        JOINT LeftFoot
        {
          OFFSET 3.16357 -42.5282 -3.95426
          CHANNELS 6 Xposition Yposition Zposition Zrotation Xrotation Yrotation
          JOINT LeftToeBase
          {
            OFFSET 0.346054 -6.02161 12.8035
            CHANNELS 6 Xposition Yposition Zposition Zrotation Xrotation Yrotation
            End Site
            {
              OFFSET 0.134235 -1.35082 5.13018
            }
          }
        }
      }
    }
    JOINT RightUpLeg
    {
      OFFSET -4.94151 -1.41743 10.6446
      CHANNELS 6 Xposition Yposition Zposition Zrotation Xrotation Yrotation
      JOINT RightLeg
      {
        OFFSET -2.56294 -42.0364 -7.94377
        CHANNELS 6 Xposition Yposition Zposition Zrotation Xrotation Yrotation
        JOINT RightFoot
        {
          OFFSET -3.0952 -42.555 -4.02241
          CHANNELS 6 Xposition Yposition Zposition Zrotation Xrotation Yrotation
          JOINT RightToeBase
          {
            OFFSET -0.0828122 -6.13587 12.8035
            CHANNELS 6 Xposition Yposition Zposition Zrotation Xrotation Yrotation
            End Site
            {
              OFFSET -0.131328 -1.35082 5.13018
            }
          }
        }
      }
    }
  }
}
MOTION
Frames:	10
Frame Time:	0.0333333
0 0 0 0 0 -0 0 97.8064 0 -9.21641 -69.4912 -99.4257 -2.69724 7.43032 -0.144315 -70.1915 -6.18407e-015 88.8779 -0.0310711 10.7595 1.96963 64.9783 69.5887 25.2871 13.1342 3.43533 0.764692 4.60351 20.8703 1.40837 29.8703 7.82586 -0.130764 -158.867 19.9774 178.863 9.52751 0.295786 -0.907742 -163.551 59.618 -171.956 27.5574 4.95586 2.47156 3.81932 1.88815 -1.18989 1.20734 -0.998971 20.1238 -90 -2.89528e-014 -90 26.8049 -0.0536703 -0.155908 -2.27865e-008 -1.09882e-007 -6.77748e-008 26.6817 -2.84217e-014 0.320147 -4.83776e-016 2.19066e-016 -1.61484e-015 27.5927 4.71444 -2.65209 2.06088 1.77022 3.86625 2.83739 -1.17114 -18.7564 -88.2385 5 88.8941 28.839 -0.0548439 1.22491 1.27948e-006 4.79839e-007 0.0043221 26.5114 0 -0.101894 -1.10621e-012 -4.76474e-009 -0.0296889 -4.76168 -1.9167 -10.2353 -54.5197 2.7833 99.4142 2.55951 -42.0585 -8.02213 -1.21668 19.2657 -6.32176 3.16357 -42.5282 -3.95426 3.72058 -5.93042 -0.842831 0.346054 -6.02161 12.8035 0.207147 -0.61891 0.346907 -4.94151 -1.41743 10.6446 -55.5919 -0.189965 81.4537 -2.56294 -42.0364 -7.94377 1.38344 13.6714 6.74024 -3.0952 -42.555 -4.02241 -6.15803 -1.03764 0.970027 -0.0828122 -6.13587 12.8035 1.52296 -4.82373 -7.85573 
0 0 0 0 0 -0 -4.37108 96.3791 -17.7748 67.679 -34.2989 -12.6916 -2.69724 7.43032 -0.144315 -70.1915 -7.95139e-015 88.8779 -0.0310711 10.7595 1.96963 54.8937 68.2342 26.7888 13.1342 3.43533 0.764692 8.31379 19.5259 4.1126 29.8703 7.82586 -0.130764 -121.886 34.1156 155.847 9.52751 0.295786 -0.907742 172.295 77.9914 -147.432 27.5574 4.95586 2.47156 0.815457 -12.0845 -21.8763 1.20734 -0.998971 20.1238 -66.2208 43.1111 -132.243 26.8049 -0.0536703 -0.155908 26.4904 -8.88103 -106.438 26.6817 -4.26326e-014 0.320147 -9.54166e-015 4.77083e-015 -1.59028e-015 27.5927 4.71444 -2.65209 -1.58516 6.2282 40.0783 2.83739 -1.17114 -18.7564 -123.518 -16.7632 78.6463 28.839 -0.0548439 1.22491 21.7575 -0.0579586 89.5685 26.5114 2.84217e-014 -0.101894 -1.11084e-012 -4.76474e-009 -0.0296889 -4.76168 -1.9167 -10.2353 -59.6709 6.68273 101.032 2.55951 -42.0585 -8.02213 0.06032 25.6661 -4.41449 3.16357 -42.5282 -3.95426 0.58296 -9.56774 -0.872806 0.346054 -6.02161 12.8035 3.22486 -8.91322 8.61751 -4.94151 -1.41743 10.6446 -49.1271 -8.66733 80.3222 -2.56294 -42.0364 -7.94377 1.32026 18.0933 2.50954 -3.0952 -42.555 -4.02241 -4.76325 3.42518 0.64164 -0.0828122 -6.13587 12.8035 0.467546 -6.29315 2.58553 
0 0 0 0 0 -0 -4.45352 96.3952 -17.6623 67.6459 -34.1765 -12.5923 -2.69724 7.43032 -0.144315 -70.1915 -5.1684e-015 88.8779 -0.0310711 10.7595 1.96963 53.5511 68.1072 27.9807 13.1342 3.43533 0.764692 8.78871 19.6922 3.89689 29.8703 7.82586 -0.130764 -120.932 33.6348 154.308 9.52751 0.295786 -0.907742 175.192 78.2384 -149.647 27.5574 4.95586 2.47156 0.795148 -12.3425 -21.3262 1.20734 -0.998971 20.1238 -66.5599 42.0956 -134.37 26.8049 -0.0536703 -0.155908 24.7063 -8.51624 -107.06 26.6817 -4.26326e-014 0.320147 -3.18055e-015 0 -6.36111e-015 27.5927 4.71444 -2.65209 -1.55893 5.81179 41.5179 2.83739 -1.17114 -18.7564 -123.257 -16.0523 79.2126 28.839 -0.0548439 1.22491 23.0703 -0.0283932 89.6223 26.5114 0 -0.101894 -1.10448e-012 -4.76475e-009 -0.0296889 -4.76168 -1.9167 -10.2353 -59.8569 6.92042 101.267 2.55951 -42.0585 -8.02213 -0.000652742 25.1799 -4.5633 3.16357 -42.5282 -3.95426 0.874433 -9.56442 -0.886331 0.346054 -6.02161 12.8035 3.01173 -8.44746 8.17428 -4.94151 -1.41743 10.6446 -49.2383 -8.5797 80.2595 -2.56294 -42.0364 -7.94377 1.44678 17.8526 2.12985 -3.0952 -42.555 -4.02241 -4.70984 3.43057 0.633788 -0.0828122 -6.13587 12.8035 0.430752 -6.22397 2.84614 
0 0 0 0 0 -0 -4.46596 96.446 -17.6272 67.7178 -34.1456 -12.6545 -2.69724 7.43032 -0.144315 -70.1915 -3.77691e-015 88.8779 -0.0310711 10.7595 1.96963 52.9243 68.0235 28.5653 13.1342 3.43533 0.764692 9.12761 19.7763 3.56445 29.8703 7.82586 -0.130764 -121.103 33.0722 155.062 9.52751 0.295786 -0.907742 175.161 77.4448 -149.025 27.5574 4.95586 2.47156 0.805277 -12.3096 -20.9711 1.20734 -0.998971 20.1238 -66.1353 41.8816 -135.634 26.8049 -0.0536703 -0.155908 24.4999 -8.65638 -107.489 26.6817 -2.84217e-014 0.320147 -6.36111e-015 1.59028e-015 -0 27.5927 4.71444 -2.65209 -1.50611 5.47491 42.2848 2.83739 -1.17114 -18.7564 -122.995 -15.4829 79.8473 28.839 -0.0548439 1.22491 22.9334 -0.374563 88.98 26.5114 2.84217e-014 -0.101894 -1.10846e-012 -4.76474e-009 -0.0296889 -4.76168 -1.9167 -10.2353 -59.7186 6.84785 101.247 2.55951 -42.0585 -8.02213 0.129782 25.4613 -4.87303 3.16357 -42.5282 -3.95426 0.0229748 -9.84527 -0.869336 0.346054 -6.02161 12.8035 2.62546 -7.83913 8.52976 -4.94151 -1.41743 10.6446 -49.4385 -8.67207 80.226 -2.56294 -42.0364 -7.94377 1.44986 17.6051 2.02536 -3.0952 -42.555 -4.02241 -4.06803 3.10211 0.545212 -0.0828122 -6.13587 12.8035 0.260236 -5.28826 3.12747 
0 0 0 0 0 -0 -4.52946 96.4565 -17.6305 67.7002 -34.1351 -12.5794 -2.69724 7.43032 -0.144315 -70.1915 -5.56597e-015 88.8779 -0.0310711 10.7595 1.96963 53.5063 67.9251 27.9079 13.1342 3.43533 0.764692 8.8846 19.4021 4.32148 29.8703 7.82586 -0.130764 -122.667 33.9187 158.248 9.52751 0.295786 -0.907742 168.433 76.7287 -143.229 27.5574 4.95586 2.47156 0.837316 -11.9201 -21.7706 1.20734 -0.998971 20.1238 -65.808 41.1361 -135.454 26.8049 -0.0536703 -0.155908 25.3784 -9.38496 -108.178 26.6817 -4.26326e-014 0.320147 -6.36111e-015 -1.59028e-015 3.18055e-015 27.5927 4.71444 -2.65209 -1.53891 5.86283 40.954 2.83739 -1.17114 -18.7564 -122.948 -16.6467 79.4838 28.839 -0.0548439 1.22491 23.3003 -0.298888 89.1192 26.5114 0 -0.101894 -1.10766e-012 -4.76474e-009 -0.0296889 -4.76168 -1.9167 -10.2353 -59.7686 6.89861 101.224 2.55951 -42.0585 -8.02213 0.169412 25.2662 -4.8196 3.16357 -42.5282 -3.95426 -0.0534866 -9.75276 -0.860907 0.346054 -6.02161 12.8035 2.81292 -8.15725 8.37982 -4.94151 -1.41743 10.6446 -49.3384 -8.49822 80.3221 -2.56294 -42.0364 -7.94377 1.4055 17.9512 2.41301 -3.0952 -42.555 -4.02241 -5.34099 3.60623 0.727256 -0.0828122 -6.13587 12.8035 0.544391 -6.42415 2.03236 
0 0 0 0 0 -0 -4.54605 96.3948 -17.6639 67.8077 -34.1137 -12.5486 -2.69724 7.43032 -0.144315 -70.1915 -5.36719e-015 88.8779 -0.0310711 10.7595 1.96963 53.452 67.8965 27.86 13.1342 3.43533 0.764692 8.9044 19.303 4.63602 29.8703 7.82586 -0.130764 -123.081 34.2133 159.169 9.52751 0.295786 -0.907742 166.022 76.5068 -141.087 27.5574 4.95586 2.47156 0.824673 -11.9664 -22.2006 1.20734 -0.998971 20.1238 -64.9841 40.4578 -134.799 26.8049 -0.0536703 -0.155908 25.219 -9.7765 -109.026 26.6817 -2.84217e-014 0.320147 -3.18055e-015 1.59028e-015 3.18055e-015 27.5927 4.71444 -2.65209 -1.55388 6.0926 40.175 2.83739 -1.17114 -18.7564 -123.503 -17.1496 78.8943 28.839 -0.0548439 1.22491 23.6544 -0.26174 89.2097 26.5114 4.26326e-014 -0.101894 -1.10766e-012 -4.76474e-009 -0.0296889 -4.76168 -1.9167 -10.2353 -59.8489 6.92304 101.234 2.55951 -42.0585 -8.02213 0.15082 25.287 -3.44454 3.16357 -42.5282 -3.95426 -0.734664 -11.2049 -0.95503 0.346054 -6.02161 12.8035 1.94551 -5.91002 5.70815 -4.94151 -1.41743 10.6446 -49.3675 -8.65354 80.2692 -2.56294 -42.0364 -7.94377 1.48034 18.0662 1.83172 -3.0952 -42.555 -4.02241 -6.44048 3.47368 0.90789 -0.0828122 -6.13587 12.8035 0.480565 -7.00846 3.47816 
0 0 0 0 0 -0 -4.54682 96.3686 -17.6796 67.7439 -34.1512 -12.6218 -2.69724 7.43032 -0.144315 -70.1915 -4.37326e-015 88.8779 -0.0310711 10.7595 1.96963 52.959 67.8492 28.0573 13.1342 3.43533 0.764692 8.90573 19.2107 5.12324 29.8703 7.82586 -0.130764 -123.112 34.2084 159.213 9.52751 0.295786 -0.907742 166.974 76.565 -141.775 27.5574 4.95586 2.47156 0.813411 -12.0048 -22.59 1.20734 -0.998971 20.1238 -63.743 39.9381 -133.862 26.8049 -0.0536703 -0.155908 26.7319 -10.4838 -109.066 26.6817 -2.84217e-014 0.320147 -6.36111e-015 4.77083e-015 -0 27.5927 4.71444 -2.65209 -1.48707 5.86613 40.0825 2.83739 -1.17114 -18.7564 -123.55 -17.181 79.5861 28.839 -0.0548439 1.22491 23.2967 -0.1226 89.4642 26.5114 5.68434e-014 -0.101894 -1.10527e-012 -4.76473e-009 -0.0296889 -4.76168 -1.9167 -10.2353 -59.8519 6.95698 101.331 2.55951 -42.0585 -8.02213 0.0398641 25.2206 -3.51552 3.16357 -42.5282 -3.95426 -0.381786 -11.2006 -0.9664 0.346054 -6.02161 12.8035 1.97243 -6.02138 5.90256 -4.94151 -1.41743 10.6446 -49.3558 -8.7022 80.2381 -2.56294 -42.0364 -7.94377 1.57608 18.0365 2.23359 -3.0952 -42.555 -4.02241 -7.37381 3.61739 1.05416 -0.0828122 -6.13587 12.8035 0.588125 -7.37708 2.9508 
0 0 0 0 0 -0 -4.56491 96.3553 -17.7052 67.5946 -34.2264 -12.787 -2.69724 7.43032 -0.144315 -70.1915 -5.76476e-015 88.8779 -0.0310711 10.7595 1.96963 53.2939 67.9471 28.0633 13.1342 3.43533 0.764692 8.52858 19.3803 4.69891 29.8703 7.82586 -0.130764 -122.28 33.9242 157.796 9.52751 0.295786 -0.907742 169.887 76.9981 -144.06 27.5574 4.95586 2.47156 0.815099 -12.0044 -22.4906 1.20734 -0.998971 20.1238 -61.9845 39.9007 -133.184 26.8049 -0.0536703 -0.155908 27.3309 -10.6049 -108.806 26.6817 -1.42109e-014 0.320147 -3.18055e-015 0 -1.59028e-015 27.5927 4.71444 -2.65209 -1.51951 5.98866 40.065 2.83739 -1.17114 -18.7564 -124.01 -16.9135 79.188 28.839 -0.0548439 1.22491 22.9116 -0.112339 89.7654 26.5114 4.26326e-014 -0.101894 -1.10766e-012 -4.76473e-009 -0.0296889 -4.76168 -1.9167 -10.2353 -59.7414 6.99957 101.443 2.55951 -42.0585 -8.02213 -0.149022 25.3295 -3.59082 3.16357 -42.5282 -3.95426 -0.181708 -11.2163 -0.973932 0.346054 -6.02161 12.8035 1.94953 -6.07022 6.25615 -4.94151 -1.41743 10.6446 -49.1644 -8.75812 80.2321 -2.56294 -42.0364 -7.94377 1.60691 18.1155 2.54483 -3.0952 -42.555 -4.02241 -7.01035 3.34745 1.00022 -0.0828122 -6.13587 12.8035 0.577802 -6.88126 2.35668 
0 0 0 0 0 -0 -4.50745 96.3274 -17.7491 67.689 -34.296 -12.7442 -2.69724 7.43032 -0.144315 -70.1915 1.98785e-016 88.8779 -0.0310711 10.7595 1.96963 53.3982 68.0753 28.0933 13.1342 3.43533 0.764692 8.49384 19.4979 4.66877 29.8703 7.82586 -0.130764 -122.193 33.8729 157.352 9.52751 0.295786 -0.907742 171.175 77.1849 -145.394 27.5574 4.95586 2.47156 0.787151 -12.2232 -22.5111 1.20734 -0.998971 20.1238 -60.5777 40.3162 -132.566 26.8049 -0.0536703 -0.155908 27.4067 -10.3091 -108.253 26.6817 -2.84217e-014 0.320147 -8.82781e-032 -1.59028e-015 -3.18055e-015 27.5927 4.71444 -2.65209 -1.54496 6.21971 39.4862 2.83739 -1.17114 -18.7564 -124.515 -16.9977 78.4369 28.839 -0.0548439 1.22491 21.9707 0.195918 90.0451 26.5114 4.26326e-014 -0.101894 -1.10209e-012 -4.76473e-009 -0.0296889 -4.76168 -1.9167 -10.2353 -59.7841 7.07776 101.544 2.55951 -42.0585 -8.02213 -0.263631 25.5408 -3.76442 3.16357 -42.5282 -3.95426 -0.443251 -11.6275 -1.00058 0.346054 -6.02161 12.8035 1.77514 -5.87292 6.73253 -4.94151 -1.41743 10.6446 -49.1132 -8.83796 80.2009 -2.56294 -42.0364 -7.94377 1.61669 18.3855 2.32932 -3.0952 -42.555 -4.02241 -6.96547 3.13143 0.996801 -0.0828122 -6.13587 12.8035 0.505907 -6.72313 2.8168 
0 0 0 0 0 -0 -4.47562 96.3264 -17.772 67.8032 -34.1655 -12.7139 -2.69724 7.43032 -0.144315 -70.1915 -6.26172e-015 88.8779 -0.0310711 10.7595 1.96963 53.4947 68.1402 27.9547 13.1342 3.43533 0.764692 8.48298 19.534 4.64181 29.8703 7.82586 -0.130764 -122.199 33.8932 156.988 9.52751 0.295786 -0.907742 171.793 77.3536 -146.099 27.5574 4.95586 2.47156 0.769179 -12.3234 -22.7772 1.20734 -0.998971 20.1238 -59.8134 40.3985 -131.915 26.8049 -0.0536703 -0.155908 28.2774 -10.2921 -107.592 26.6817 -4.26326e-014 0.320147 -3.18055e-015 -4.77083e-015 -3.18055e-015 27.5927 4.71444 -2.65209 -1.51654 6.12223 39.4434 2.83739 -1.17114 -18.7564 -124.847 -16.893 78.2745 28.839 -0.0548439 1.22491 21.708 0.249832 90.4671 26.5114 1.42109e-014 -0.101894 -1.1029e-012 -4.76475e-009 -0.0296889 -4.76168 -1.9167 -10.2353 -59.8487 6.94976 101.534 2.55951 -42.0585 -8.02213 -0.253761 25.5188 -4.14921 3.16357 -42.5282 -3.95426 -0.412093 -11.4959 -0.99039 0.346054 -6.02161 12.8035 1.91239 -6.26099 7.26318 -4.94151 -1.41743 10.6446 -49.0515 -8.88182 80.2714 -2.56294 -42.0364 -7.94377 1.46626 18.6789 2.7362 -3.0952 -42.555 -4.02241 -6.7877 3.15395 0.96856 -0.0828122 -6.13587 12.8035 0.638627 -6.9019 1.79085 
